<svg width="18" height="19" viewBox="0 0 18 19" fill="none" xmlns="http://www.w3.org/2000/svg"><g clip-path="url(#books-icon)"><path d="M7.5 15.9474C7.5 17.0838 7.1045 18.0052 6 18.0052H2.5C0.5 18.0052 0.5 10.8031 2.5 10.8031H6C7.1045 10.8031 7.5 11.7244 7.5 12.8608V15.9474Z" fill="#553788"></path><path d="M17 16.9763H16.5V11.832H17C17.1326 11.832 17.2598 11.7778 17.3536 11.6813C17.4473 11.5848 17.5 11.454 17.5 11.3175C17.5 11.1811 17.4473 11.0502 17.3536 10.9538C17.2598 10.8573 17.1326 10.8031 17 10.8031H5C3 10.8031 3 18.0052 5 18.0052H17C17.1326 18.0052 17.2598 17.951 17.3536 17.8545C17.4473 17.758 17.5 17.6272 17.5 17.4907C17.5 17.3543 17.4473 17.2234 17.3536 17.127C17.2598 17.0305 17.1326 16.9763 17 16.9763Z" fill="#9266CC"></path><path d="M17.086 16.9763H5.5C4.5 16.9763 4.5 11.832 5.5 11.832H17.086C17.638 11.832 17.638 16.9763 17.086 16.9763Z" fill="#CCD6DD"></path><path d="M5.74998 12.8608H17.425C17.3575 12.2564 17.245 11.832 17.086 11.832H5.49998C4.67448 11.832 4.53098 15.3342 5.06848 16.5586C4.87248 15.0364 5.09948 12.8608 5.74998 12.8608Z" fill="#99AAB5"></path><path d="M6 4.11367C6 4.65941 5.78929 5.1828 5.41421 5.5687C5.03914 5.9546 4.53043 6.1714 4 6.1714H2C-5.96046e-08 6.1714 -5.96046e-08 0.512634 2 0.512634H4C4.53043 0.512634 5.03914 0.72943 5.41421 1.11533C5.78929 1.50123 6 2.02462 6 2.57037V4.11367Z" fill="#226699"></path><path d="M15.5 5.14253H15V1.5415H15.5C15.6326 1.5415 15.7598 1.4873 15.8536 1.39083C15.9473 1.29435 16 1.1635 16 1.02707C16 0.890631 15.9473 0.759783 15.8536 0.663308C15.7598 0.566833 15.6326 0.512634 15.5 0.512634H3.5C1.5 0.512634 1.5 6.1714 3.5 6.1714H15.5C15.6326 6.1714 15.7598 6.1172 15.8536 6.02072C15.9473 5.92425 16 5.7934 16 5.65697C16 5.52053 15.9473 5.38968 15.8536 5.29321C15.7598 5.19673 15.6326 5.14253 15.5 5.14253Z" fill="#55ACEE"></path><path d="M15.586 5.14296H4C3 5.14296 3 1.54193 4 1.54193H15.586C16.138 1.54193 16.138 5.14296 15.586 5.14296Z" fill="#CCD6DD"></path><path d="M4 2.57034H15.9625C15.9055 1.99186 15.7805 1.54193 15.586 1.54193H4C3.4035 1.54193 3.1655 2.82178 3.281 3.85584C3.359 3.15756 3.5965 2.57034 4 2.57034Z" fill="#99AAB5"></path><path d="M10 8.74538C10 9.29113 9.78929 9.81452 9.41421 10.2004C9.03914 10.5863 8.53043 10.8031 8 10.8031H3C1 10.8031 1 6.17322 3 6.17322H8C8.53043 6.17322 9.03914 6.39001 9.41421 6.77591C9.78929 7.16181 10 7.68521 10 8.23095V8.74538Z" fill="#F4900C"></path><path d="M17.5 9.77425H17V7.20208H17.5C17.6326 7.20208 17.7598 7.14788 17.8536 7.05141C17.9473 6.95493 18 6.82409 18 6.68765C18 6.55121 17.9473 6.42037 17.8536 6.32389C17.7598 6.22742 17.6326 6.17322 17.5 6.17322H7.5C5.5 6.17322 5.5 10.8031 7.5 10.8031H17.5C17.6326 10.8031 17.7598 10.7489 17.8536 10.6524C17.9473 10.556 18 10.4251 18 10.2887C18 10.1522 17.9473 10.0214 17.8536 9.92492C17.7598 9.82845 17.6326 9.77425 17.5 9.77425Z" fill="#FFAC33"></path><path d="M17.586 9.7731H8C7 9.7731 7 7.20209 8 7.20209H17.586C18.138 7.20209 18.138 9.7731 17.586 9.7731Z" fill="#CCD6DD"></path><path d="M7.99999 8.23004H17.992C17.9595 7.6842 17.825 7.20209 17.586 7.20209H7.99999C7.36299 7.20209 7.13349 8.24392 7.30849 9.00101C7.40749 8.56978 7.63699 8.23004 7.99999 8.23004Z" fill="#99AAB5"></path></g><defs><clipPath id="books-icon"><rect width="18" height="18.5196" fill="white"></rect></clipPath></defs></svg>