<svg width="24" height="24" viewBox="0 0 24 24" fill="none" xmlns="http://www.w3.org/2000/svg"><g clip-path="url(#contacts-icon)"><path d="M24 18C24 18.7072 23.719 19.3855 23.219 19.8856C22.7189 20.3857 22.0406 20.6667 21.3333 20.6667H2.66667C1.95942 20.6667 1.28115 20.3857 0.781049 19.8856C0.280952 19.3855 0 18.7072 0 18V5.99999C0 5.29275 0.280952 4.61447 0.781049 4.11438C1.28115 3.61428 1.95942 3.33333 2.66667 3.33333H21.3333C22.0406 3.33333 22.7189 3.61428 23.219 4.11438C23.719 4.61447 24 5.29275 24 5.99999V18Z" fill="#CCD6DD"></path><path d="M7.96677 11.7573L0.424766 19.2993C0.406766 19.318 0.400099 19.3413 0.384766 19.36C0.611432 19.74 0.927432 20.0553 1.30743 20.2827C1.32677 20.2673 1.34943 20.2607 1.36743 20.2427L8.9101 12.7C9.0351 12.5749 9.1053 12.4053 9.10523 12.2284C9.10517 12.0516 9.03486 11.882 8.90977 11.757C8.78467 11.632 8.61504 11.5618 8.4382 11.5619C8.26135 11.5619 8.09177 11.6322 7.96677 11.7573ZM23.6154 19.36C23.6014 19.3413 23.5934 19.318 23.5754 19.3L16.0341 11.7573C15.9722 11.6954 15.8987 11.6462 15.8178 11.6127C15.7369 11.5792 15.6502 11.5619 15.5627 11.5619C15.4751 11.5618 15.3884 11.579 15.3075 11.6125C15.2266 11.646 15.153 11.6951 15.0911 11.757C15.0292 11.8189 14.98 11.8924 14.9465 11.9733C14.9129 12.0542 14.8957 12.1409 14.8956 12.2284C14.8956 12.316 14.9128 12.4027 14.9463 12.4836C14.9798 12.5645 15.0289 12.6381 15.0908 12.7L22.6328 20.2427C22.6501 20.26 22.6741 20.2673 22.6928 20.2827C23.0724 20.0567 23.3895 19.7396 23.6154 19.36Z" fill="#99AAB5"></path><path d="M21.3333 3.33333H2.66667C1.95942 3.33333 1.28115 3.61428 0.781049 4.11438C0.280952 4.61447 0 5.29275 0 5.99999L0 6.68666L9.68533 16.3507C10.2951 16.9569 11.1201 17.2972 11.98 17.2972C12.8399 17.2972 13.6649 16.9569 14.2747 16.3507L24 6.67266V5.99999C24 5.29275 23.719 4.61447 23.219 4.11438C22.7189 3.61428 22.0406 3.33333 21.3333 3.33333Z" fill="#99AAB5"></path><path d="M21.3334 3.33333H2.66669C2.16484 3.33445 1.67354 3.47743 1.24948 3.74579C0.825413 4.01415 0.485867 4.39694 0.27002 4.85L10.114 14.6947C10.3616 14.9423 10.6556 15.1387 10.9792 15.2728C11.3027 15.4068 11.6495 15.4758 11.9997 15.4758C12.3499 15.4758 12.6967 15.4068 13.0202 15.2728C13.3438 15.1387 13.6377 14.9423 13.8854 14.6947L23.73 4.85C23.5142 4.39689 23.1747 4.01406 22.7506 3.74569C22.3265 3.47732 21.8352 3.33437 21.3334 3.33333Z" fill="#E1E8ED"></path><path d="M10 6.18C10 5.69333 10.2433 5.33333 10.6667 5.33333H13.08C13.6393 5.33333 13.8627 5.65999 13.8627 5.99999C13.8627 6.33066 13.63 6.66666 13.1727 6.66666H11.3673V7.99999H13.056C13.5333 7.99999 13.766 8.32599 13.766 8.66666C13.766 8.99733 13.522 9.33333 13.056 9.33333H11.3673V10.6667H13.2607C13.7267 10.6667 13.952 10.9927 13.952 11.3333C13.952 11.664 13.7167 12 13.2607 12H10.75C10.3213 12 10 11.646 10 11.208V6.18Z" fill="#66757F"></path></g><defs><clipPath id="contacts-icon"><rect width="24" height="24" fill="white"></rect></clipPath></defs></svg>