<svg width="30" height="30" viewBox="0 0 30 30" fill="none" xmlns="http://www.w3.org/2000/svg"><path d="M15 30C23.2843 30 30 23.2843 30 15C30 6.71573 23.2843 0 15 0C6.71573 0 0 6.71573 0 15C0 23.2843 6.71573 30 15 30Z" fill="#663399"></path><path d="M6.64287 23.3571C4.39287 21.1071 3.21429 18.1071 3.21429 15.2142L14.8929 26.7857C11.8929 26.6785 8.89287 25.6071 6.64287 23.3571Z" fill="white"></path><path d="M17.5714 26.4642L3.53571 12.4285C4.71428 7.17852 9.42856 3.21423 15 3.21423C18.9643 3.21423 22.3928 5.1428 24.5357 8.03566L22.9286 9.42852C21.1071 6.96423 18.2143 5.35709 15 5.35709C10.8214 5.35709 7.28571 8.03566 5.89285 11.7857L18.2143 24.1071C21.3214 23.0357 23.6786 20.3571 24.4286 17.1428H19.2857V14.9999H26.7857C26.7857 20.5714 22.8214 25.2857 17.5714 26.4642Z" fill="white"></path></svg>