<svg width="32" height="32" viewBox="0 0 32 32" fill="none" xmlns="http://www.w3.org/2000/svg"><path d="M27.5553 28.4444C27.5553 29.3874 27.1807 30.2918 26.5139 30.9586C25.8471 31.6254 24.9428 32 23.9998 32H4.44423C3.50124 32 2.59687 31.6254 1.93007 30.9586C1.26327 30.2918 0.888672 29.3874 0.888672 28.4444V3.55556C0.888672 2.61256 1.26327 1.70819 1.93007 1.0414C2.59687 0.374602 3.50124 0 4.44423 0L23.9998 0C24.9428 0 25.8471 0.374602 26.5139 1.0414C27.1807 1.70819 27.5553 2.61256 27.5553 3.55556V28.4444Z" fill="#CCD6DD"></path><path d="M23.9999 21.3333C23.9999 21.5691 23.9062 21.7952 23.7395 21.9619C23.5728 22.1286 23.3468 22.2222 23.111 22.2222H5.33322C5.09748 22.2222 4.87138 22.1286 4.70469 21.9619C4.53799 21.7952 4.44434 21.5691 4.44434 21.3333C4.44434 21.0976 4.53799 20.8715 4.70469 20.7048C4.87138 20.5381 5.09748 20.4445 5.33322 20.4445H23.111C23.3468 20.4445 23.5728 20.5381 23.7395 20.7048C23.9062 20.8715 23.9999 21.0976 23.9999 21.3333ZM9.77767 24.8889C9.77767 25.1246 9.68402 25.3507 9.51732 25.5174C9.35062 25.6841 9.12453 25.7778 8.88878 25.7778H5.33322C5.09748 25.7778 4.87138 25.6841 4.70469 25.5174C4.53799 25.3507 4.44434 25.1246 4.44434 24.8889C4.44434 24.6531 4.53799 24.4271 4.70469 24.2604C4.87138 24.0937 5.09748 24 5.33322 24H8.88878C9.12453 24 9.35062 24.0937 9.51732 24.2604C9.68402 24.4271 9.77767 24.6531 9.77767 24.8889ZM23.9999 7.11112C23.9999 7.34687 23.9062 7.57296 23.7395 7.73966C23.5728 7.90636 23.3468 8.00001 23.111 8.00001H5.33322C5.09748 8.00001 4.87138 7.90636 4.70469 7.73966C4.53799 7.57296 4.44434 7.34687 4.44434 7.11112C4.44434 6.87537 4.53799 6.64928 4.70469 6.48258C4.87138 6.31588 5.09748 6.22223 5.33322 6.22223H23.111C23.3468 6.22223 23.5728 6.31588 23.7395 6.48258C23.9062 6.64928 23.9999 6.87537 23.9999 7.11112ZM23.9999 10.6667C23.9999 10.9024 23.9062 11.1285 23.7395 11.2952C23.5728 11.4619 23.3468 11.5556 23.111 11.5556H5.33322C5.09748 11.5556 4.87138 11.4619 4.70469 11.2952C4.53799 11.1285 4.44434 10.9024 4.44434 10.6667C4.44434 10.4309 4.53799 10.2048 4.70469 10.0381C4.87138 9.87144 5.09748 9.77778 5.33322 9.77778H23.111C23.3468 9.77778 23.5728 9.87144 23.7395 10.0381C23.9062 10.2048 23.9999 10.4309 23.9999 10.6667ZM23.9999 14.2222C23.9999 14.458 23.9062 14.6841 23.7395 14.8508C23.5728 15.0175 23.3468 15.1111 23.111 15.1111H5.33322C5.09748 15.1111 4.87138 15.0175 4.70469 14.8508C4.53799 14.6841 4.44434 14.458 4.44434 14.2222C4.44434 13.9865 4.53799 13.7604 4.70469 13.5937C4.87138 13.427 5.09748 13.3333 5.33322 13.3333H23.111C23.3468 13.3333 23.5728 13.427 23.7395 13.5937C23.9062 13.7604 23.9999 13.9865 23.9999 14.2222ZM23.9999 17.7778C23.9999 18.0135 23.9062 18.2396 23.7395 18.4063C23.5728 18.573 23.3468 18.6667 23.111 18.6667H5.33322C5.09748 18.6667 4.87138 18.573 4.70469 18.4063C4.53799 18.2396 4.44434 18.0135 4.44434 17.7778C4.44434 17.542 4.53799 17.3159 4.70469 17.1492C4.87138 16.9825 5.09748 16.8889 5.33322 16.8889H23.111C23.3468 16.8889 23.5728 16.9825 23.7395 17.1492C23.9062 17.3159 23.9999 17.542 23.9999 17.7778Z" fill="#99AAB5"></path><path d="M27.976 5.37423C27.2408 4.89868 26.3431 4.85956 25.7351 5.35379L25.0311 5.92801L23.712 7.00445L23.6231 7.07556L21.5111 8.79823L10.9528 17.408C10.5644 17.7253 10.248 18.4916 9.91018 19.2516C9.57418 20.0071 9.04884 21.7867 8.62751 23.1547C8.49596 23.3769 7.68085 24.7956 8.13773 25.3351C8.59996 25.8818 10.2053 25.344 10.4204 25.2676C11.8657 25.1129 13.7368 24.936 14.552 24.752C15.3733 24.5645 16.2 24.4009 16.5884 24.0836C16.5955 24.0782 16.5973 24.0676 16.6035 24.0631L27.144 15.4711L27.848 14.8969L27.976 14.792V5.37423Z" fill="#66757F"></path><path d="M16.1289 20.0231C16.1289 20.0231 14.9965 18.3511 14.2471 17.7538C13.6498 17.0045 11.9813 15.8729 11.9813 15.8729C11.5831 15.4765 10.9227 15.4462 10.5333 15.8347C10.1449 16.224 9.82845 17.0489 9.49067 17.8711C9.07112 18.8898 8.35645 21.5636 7.91912 22.984C7.84534 23.2258 8.37867 22.584 8.36623 22.7973C8.35734 22.9636 8.39023 23.1476 8.43201 23.3138L8.30223 23.4551L8.48712 23.5147C8.50934 23.5876 8.53156 23.6516 8.54756 23.7013L8.68889 23.5716C8.85512 23.6133 9.03912 23.6462 9.20445 23.6373C9.41778 23.6249 8.77512 24.1591 9.01778 24.0845C10.4382 23.6462 13.1129 22.9325 14.1307 22.5129C14.952 22.1742 15.7787 21.8587 16.1671 21.4693C16.5573 21.0827 16.528 20.4222 16.1289 20.0231Z" fill="#D99E82"></path><path d="M22.4995 3.86758C22.3144 4.05235 22.1675 4.27182 22.0673 4.51342C21.9671 4.75503 21.9155 5.01402 21.9155 5.27558C21.9155 5.53714 21.9671 5.79613 22.0673 6.03773C22.1675 6.27933 22.3144 6.4988 22.4995 6.68358L25.3146 9.49958C25.6883 9.87259 26.1947 10.0821 26.7226 10.0821C27.2506 10.0821 27.757 9.87259 28.1306 9.49958L30.9475 6.68358C31.3205 6.30994 31.53 5.80354 31.53 5.27558C31.53 4.74761 31.3205 4.24122 30.9475 3.86758L28.1306 1.05158C27.9457 0.866664 27.7262 0.719982 27.4846 0.619907C27.2431 0.519831 26.9841 0.468323 26.7226 0.468323C26.4611 0.468323 26.2022 0.519831 25.9606 0.619907C25.719 0.719982 25.4995 0.866664 25.3146 1.05158L22.4995 3.86758Z" fill="#EA596E"></path><path d="M10.5322 15.8355L13.35 18.6533L16.1633 21.4675L26.7242 10.9084L21.0913 5.27643L10.5322 15.8355Z" fill="#FFCC4D"></path><path d="M10.0428 23.7707C10.0428 23.7707 8.21172 24.7778 7.7175 24.2827C7.22239 23.7867 8.23395 21.9618 8.23395 21.9618C8.23395 21.9618 9.96817 21.9938 10.0428 23.7707Z" fill="#292F33"></path><path d="M21.0918 5.27555L24.6118 1.75555L30.2438 7.38844L26.7238 10.9084L21.0918 5.27555Z" fill="#CCD6DD"></path><path d="M23.2025 3.16268L23.9065 2.45868L29.5385 8.08979L28.8345 8.79379L23.2025 3.16268ZM21.7954 4.57068L22.4985 3.86757L28.1305 9.49868L27.4265 10.2027L21.7954 4.57068Z" fill="#99AAB5"></path></svg>