<svg width="26" height="26" viewBox="0 0 26 26" fill="none" xmlns="http://www.w3.org/2000/svg">
<path d="M25.6409 16.4356C25.2877 16.0825 24.7555 15.9788 24.2958 16.1735C22.9286 16.7526 21.4789 17.0462 19.9865 17.0462C17.0396 17.0462 14.2693 15.8987 12.1856 13.815C8.99047 10.6199 8.06477 5.86646 9.82724 1.70499C10.022 1.24506 9.91829 0.713026 9.56511 0.359944C9.21202 0.00676013 8.67978 -0.0966813 8.22006 0.0980648C6.62071 0.775639 5.18395 1.74505 3.94971 2.97939C1.40238 5.52663 -0.000304638 8.91328 4.96273e-08 12.5156C0.000304737 16.1173 1.40309 19.5036 3.95002 22.0506C6.49736 24.598 9.88421 26.0009 13.4865 26.0009C17.0882 26.0009 20.4745 24.5982 23.0215 22.0512C24.2559 20.8168 25.2253 19.3801 25.9029 17.7808C26.0977 17.3209 25.9941 16.7888 25.6409 16.4356Z" fill="black"/>
</svg>
