<svg width="26" height="26" viewBox="0 0 26 26" fill="none" xmlns="http://www.w3.org/2000/svg">
<path d="M13 20.0586C16.8984 20.0586 20.0586 16.8984 20.0586 13C20.0586 9.10165 16.8984 5.94141 13 5.94141C9.10165 5.94141 5.94141 9.10165 5.94141 13C5.94141 16.8984 9.10165 20.0586 13 20.0586Z" fill="#EEEEEE"/>
<path d="M13 4.14593C13.4207 4.14593 13.7617 3.80489 13.7617 3.38421V0.761719C13.7617 0.341047 13.4207 0 13 0C12.5793 0 12.2383 0.341047 12.2383 0.761719V3.38421C12.2383 3.80489 12.5793 4.14593 13 4.14593Z" fill="#EEEEEE"/>
<path d="M25.2382 12.2383H22.6157C22.1951 12.2383 21.854 12.5793 21.854 13C21.854 13.4207 22.1951 13.7617 22.6157 13.7617H25.2382C25.6589 13.7617 25.9999 13.4207 25.9999 13C25.9999 12.5793 25.6589 12.2383 25.2382 12.2383Z" fill="#EEEEEE"/>
<path d="M13 21.854C12.5793 21.854 12.2383 22.1951 12.2383 22.6157V25.2382C12.2383 25.6589 12.5793 25.9999 13 25.9999C13.4207 25.9999 13.7617 25.6589 13.7617 25.2382V22.6157C13.7617 22.1951 13.4207 21.854 13 21.854Z" fill="#EEEEEE"/>
<path d="M4.14593 13C4.14593 12.5793 3.80489 12.2383 3.38421 12.2383H0.761719C0.341047 12.2383 0 12.5793 0 13C0 13.4207 0.341047 13.7617 0.761719 13.7617H3.38421C3.80489 13.7617 4.14593 13.4207 4.14593 13Z" fill="#EEEEEE"/>
<path d="M19.7993 6.96232C19.9943 6.96232 20.1892 6.88797 20.3379 6.73918L22.1923 4.8848C22.4898 4.58733 22.4898 4.10506 22.1923 3.80758C21.8949 3.5101 21.4126 3.5101 21.1151 3.80758L19.2607 5.66196C18.9632 5.95944 18.9632 6.44171 19.2607 6.73918C19.4095 6.88797 19.6044 6.96232 19.7993 6.96232Z" fill="#EEEEEE"/>
<path d="M20.3379 19.2608C20.0405 18.9634 19.5582 18.9634 19.2607 19.2608C18.9632 19.5583 18.9632 20.0405 19.2607 20.338L21.1151 22.1924C21.2639 22.3411 21.4588 22.4155 21.6537 22.4155C21.8486 22.4155 22.0436 22.3411 22.1923 22.1923C22.4898 21.8949 22.4898 21.4126 22.1923 21.1151L20.3379 19.2608Z" fill="#EEEEEE"/>
<path d="M5.66196 19.2608L3.80758 21.1152C3.5101 21.4127 3.5101 21.895 3.80758 22.1924C3.95632 22.3412 4.15127 22.4156 4.34617 22.4156C4.54106 22.4156 4.73606 22.3412 4.88475 22.1924L6.73913 20.338C7.03661 20.0406 7.03661 19.5583 6.73913 19.2608C6.44175 18.9634 5.95938 18.9634 5.66196 19.2608Z" fill="#EEEEEE"/>
<path d="M5.66201 6.73918C5.81075 6.88792 6.0057 6.96232 6.2006 6.96232C6.39549 6.96232 6.59049 6.88797 6.73918 6.73918C7.03666 6.44171 7.03666 5.95944 6.73918 5.66196L4.8848 3.80758C4.58738 3.5101 4.10506 3.5101 3.80758 3.80758C3.5101 4.10506 3.5101 4.58733 3.80758 4.8848L5.66201 6.73918Z" fill="#EEEEEE"/>
<path d="M16.3978 4.82389C16.4934 4.86361 16.5924 4.88239 16.6898 4.88239C16.9884 4.88239 17.2718 4.70573 17.3935 4.41277L18.3999 1.99111C18.5613 1.60264 18.3773 1.15683 17.9888 0.995394C17.6004 0.834011 17.1546 1.01794 16.9931 1.40647L15.9867 3.82812C15.8253 4.21665 16.0094 4.66246 16.3978 4.82389Z" fill="#EEEEEE"/>
<path d="M24.5936 16.9933L22.1719 15.9869C21.7834 15.8254 21.3376 16.0094 21.1762 16.3979C21.0148 16.7864 21.1988 17.2322 21.5873 17.3937L24.0089 18.4C24.1045 18.4398 24.2035 18.4585 24.301 18.4585C24.5995 18.4585 24.8829 18.2819 25.0046 17.9889C25.1661 17.6005 24.982 17.1547 24.5936 16.9933Z" fill="#EEEEEE"/>
<path d="M9.60212 21.1762C9.2136 21.0148 8.76784 21.1987 8.60641 21.5873L7.60002 24.0089C7.43859 24.3974 7.62262 24.8432 8.0111 25.0046C8.10672 25.0443 8.20569 25.0631 8.30314 25.0631C8.60168 25.0631 8.88509 24.8865 9.00682 24.5935L10.0132 22.1718C10.1746 21.7834 9.99055 21.3376 9.60212 21.1762Z" fill="#EEEEEE"/>
<path d="M1.4066 9.00677L3.82826 10.0132C3.92388 10.0529 4.02286 10.0717 4.1203 10.0717C4.41885 10.0717 4.70226 9.89499 4.82398 9.60203C4.98541 9.21355 4.80138 8.76775 4.41291 8.60631L1.99125 7.59998C1.60277 7.43865 1.15696 7.62258 0.995531 8.01105C0.834097 8.39953 1.01813 8.84534 1.4066 9.00677Z" fill="#EEEEEE"/>
<path d="M21.1843 9.62133C21.3056 9.9151 21.5895 10.0926 21.8887 10.0926C21.9855 10.0926 22.084 10.074 22.1791 10.0347L24.6031 9.03399C24.9919 8.87348 25.177 8.42812 25.0165 8.03924C24.8559 7.65036 24.4105 7.46531 24.0218 7.62583L21.5978 8.62658C21.2089 8.78715 21.0238 9.2325 21.1843 9.62133Z" fill="#EEEEEE"/>
<path d="M17.3733 21.5974C17.2127 21.2086 16.7673 21.0236 16.3785 21.184C15.9896 21.3446 15.8045 21.7899 15.9651 22.1788L16.9658 24.6028C17.0871 24.8966 17.371 25.0741 17.6702 25.0741C17.767 25.0741 17.8655 25.0555 17.9606 25.0163C18.3494 24.8557 18.5345 24.4103 18.374 24.0215L17.3733 21.5974Z" fill="#EEEEEE"/>
<path d="M4.81586 16.3788C4.65534 15.9899 4.21009 15.8047 3.82111 15.9653L1.39707 16.9661C1.00823 17.1266 0.823086 17.572 0.983605 17.9608C1.10492 18.2546 1.38874 18.4321 1.68799 18.4321C1.78478 18.4321 1.8833 18.4135 1.97836 18.3743L4.4024 17.3735C4.79129 17.2129 4.97638 16.7676 4.81586 16.3788Z" fill="#EEEEEE"/>
<path d="M8.62645 4.40254C8.74776 4.69631 9.03163 4.87379 9.33083 4.87379C9.42767 4.87379 9.52614 4.8552 9.6212 4.81595C10.0101 4.65543 10.1952 4.21008 10.0347 3.82119L9.03391 1.39715C8.87334 1.00827 8.42789 0.823222 8.03916 0.983742C7.65028 1.14426 7.46518 1.58966 7.6257 1.9785L8.62645 4.40254Z" fill="#EEEEEE"/>
</svg>
