<svg width="18" height="18" viewBox="0 0 18 18" fill="none" xmlns="http://www.w3.org/2000/svg"><path d="M16.0085 10.0905L8.6725 2.873C8.3435 2.5435 7.9115 2.5 7.48 2.5H2.4415C1.5145 2.5 1 3.0145 1 3.9415V8.9825C1 9.413 1.0445 9.844 1.373 10.1725L8.65 17.5085C8.80296 17.6641 8.98537 17.7877 9.18659 17.872C9.38781 17.9564 9.60381 17.9998 9.822 17.9998C10.0402 17.9998 10.2562 17.9564 10.4574 17.872C10.6586 17.7877 10.841 17.6641 10.994 17.5085L16.0235 12.4645C16.6785 11.8085 16.6635 10.7455 16.0085 10.0905ZM4.2105 5.7105C4.141 5.78003 4.05848 5.8352 3.96766 5.87284C3.87684 5.91049 3.77949 5.92988 3.68118 5.9299C3.58286 5.92992 3.48551 5.91058 3.39467 5.87298C3.30383 5.83538 3.22128 5.78025 3.15175 5.71075C3.08222 5.64125 3.02705 5.55873 2.98941 5.46791C2.95176 5.37709 2.93237 5.27974 2.93235 5.18143C2.93233 5.08311 2.95167 4.98576 2.98927 4.89492C3.02687 4.80408 3.082 4.72153 3.1515 4.652C3.221 4.58246 3.30352 4.5273 3.39434 4.48966C3.48516 4.45201 3.58251 4.43262 3.68082 4.4326C3.77914 4.43258 3.87649 4.45192 3.96733 4.48952C4.05817 4.52712 4.14071 4.58225 4.21025 4.65175C4.27978 4.72125 4.33495 4.80377 4.37259 4.89459C4.41024 4.98541 4.42963 5.08276 4.42965 5.18107C4.42967 5.27939 4.41033 5.37674 4.37273 5.46758C4.33513 5.55842 4.28 5.64096 4.2105 5.7105Z" fill="#FFD983"></path><path d="M4.976 3.88601C4.80605 3.71586 4.60421 3.58087 4.38205 3.48878C4.15989 3.39668 3.92175 3.34927 3.68125 3.34927C3.44076 3.34927 3.20262 3.39668 2.98046 3.48878C2.75829 3.58087 2.55646 3.71586 2.3865 3.88601C2.04305 4.22947 1.8501 4.69529 1.8501 5.18101C1.8501 5.66673 2.04305 6.13256 2.3865 6.47601C2.72996 6.81947 3.19579 7.01242 3.6815 7.01242C4.16722 7.01242 4.63305 6.81947 4.9765 6.47601C5.31975 6.13241 5.51251 5.66658 5.51242 5.18091C5.51232 4.69524 5.31938 4.22948 4.976 3.88601ZM4.211 5.71101C4.14191 5.78283 4.05919 5.84015 3.96767 5.87962C3.87616 5.91908 3.77769 5.9399 3.67804 5.94085C3.57838 5.9418 3.47954 5.92287 3.38729 5.88516C3.29504 5.84745 3.21123 5.79172 3.14078 5.72124C3.07032 5.65075 3.01463 5.56692 2.97697 5.47465C2.9393 5.38238 2.92042 5.28353 2.92142 5.18387C2.92242 5.08422 2.94328 4.98576 2.98279 4.89427C3.02229 4.80277 3.07965 4.72007 3.1515 4.65101C3.29299 4.51503 3.48216 4.43995 3.67839 4.44192C3.87462 4.44389 4.06225 4.52274 4.20098 4.66153C4.33971 4.80033 4.41847 4.988 4.42035 5.18423C4.42222 5.38046 4.34706 5.56959 4.211 5.71101Z" fill="#D99E82"></path><path d="M4.25351 5.25049C4.20709 5.29694 4.15197 5.3338 4.0913 5.35896C4.03064 5.38411 3.96561 5.39707 3.89994 5.39709C3.7673 5.39714 3.64008 5.34449 3.54626 5.25074C3.45244 5.15699 3.39971 5.0298 3.39966 4.89717C3.39961 4.76453 3.45226 4.63731 3.54601 4.54349L7.78851 0.30099C7.83493 0.254535 7.89005 0.217678 7.95072 0.192524C8.01138 0.16737 8.07641 0.154412 8.14208 0.154388C8.20776 0.154365 8.27279 0.167278 8.33348 0.192389C8.39416 0.2175 8.44931 0.254317 8.49576 0.30074C8.54221 0.347162 8.57907 0.40228 8.60423 0.462946C8.62938 0.523612 8.64234 0.588639 8.64236 0.654313C8.64238 0.719987 8.62947 0.785023 8.60436 0.845707C8.57925 0.906391 8.54243 0.961535 8.49601 1.00799L4.25351 5.25049Z" fill="#C1694F"></path></svg>