<svg width="18" height="18" viewBox="0 0 18 18" fill="none" xmlns="http://www.w3.org/2000/svg"><path class="twitter-svg-social" d="M5.86403 15.7577C12.2323 15.7577 15.7148 10.4818 15.7148 5.90694C15.7148 5.7571 15.7117 5.60787 15.705 5.45947C16.381 4.97073 16.9685 4.36083 17.432 3.66661C16.8117 3.94246 16.144 4.12791 15.4438 4.21181C16.1586 3.78302 16.7074 3.10501 16.9662 2.29676C16.2973 2.69335 15.5564 2.98148 14.7678 3.1371C14.136 2.46415 13.2364 2.0433 12.2404 2.0433C10.3286 2.0433 8.77804 3.59375 8.77804 5.50498C8.77804 5.77681 8.80848 6.04099 8.86782 6.29445C5.99035 6.14966 3.43867 4.77207 1.73125 2.67715C1.43404 3.1887 1.26253 3.78312 1.26253 4.41738C1.26253 5.6184 1.87377 6.67897 2.80317 7.29919C2.23517 7.28175 1.70164 7.12581 1.23518 6.86627C1.23466 6.88082 1.23466 6.89496 1.23466 6.91044C1.23466 8.5872 2.42805 9.98719 4.01245 10.3044C3.72143 10.3836 3.41524 10.4262 3.09946 10.4262C2.87675 10.4262 2.65962 10.4043 2.44869 10.3638C2.88945 11.7394 4.16766 12.7404 5.68302 12.7685C4.498 13.6973 3.00524 14.2505 1.38286 14.2505C1.10381 14.2505 0.82796 14.2345 0.556961 14.2025C2.08925 15.1847 3.90874 15.7578 5.86414 15.7578" fill="black"></path></svg>