<svg width="25" height="20" viewBox="0 0 25 20" fill="none" xmlns="http://www.w3.org/2000/svg">
<path class="twitter-icon" d="M8.14461 19.8857C16.9894 19.8857 21.8263 12.558 21.8263 6.20405C21.8263 5.99594 21.822 5.78868 21.8126 5.58257C22.7515 4.90375 23.5674 4.05667 24.2113 3.09248C23.3497 3.47561 22.4224 3.73317 21.4499 3.8497C22.4426 3.25416 23.2048 2.31248 23.5643 1.18991C22.6352 1.74073 21.6062 2.14091 20.5109 2.35705C19.6334 1.42239 18.384 0.837891 17.0007 0.837891C14.3454 0.837891 12.1918 2.99129 12.1918 5.64578C12.1918 6.02331 12.2341 6.39024 12.3165 6.74226C8.32005 6.54117 4.77605 4.62784 2.40464 1.71823C1.99185 2.42872 1.75363 3.2543 1.75363 4.13522C1.75363 5.8033 2.60258 7.27631 3.89342 8.13773C3.10453 8.1135 2.36351 7.89693 1.71565 7.53645C1.71494 7.55666 1.71494 7.5763 1.71494 7.5978C1.71494 9.92664 3.37241 11.8711 5.57297 12.3117C5.16878 12.4216 4.74352 12.4808 4.30492 12.4808C3.99562 12.4808 3.69405 12.4504 3.40108 12.3941C4.01325 14.3047 5.78854 15.695 7.89321 15.734C6.24734 17.0239 4.17406 17.7923 1.92076 17.7923C1.53319 17.7923 1.15007 17.7701 0.773682 17.7257C2.90186 19.0898 5.42892 19.8858 8.14476 19.8858" fill="black"/>
</svg>
