<svg width="20" height="20" viewBox="0 0 20 20" fill="none" xmlns="http://www.w3.org/2000/svg"><path class="twitter-icon" d="M6.51564 17.5086C13.5915 17.5086 17.461 11.6465 17.461 6.56331C17.461 6.39682 17.4575 6.23102 17.4501 6.06613C18.2011 5.52308 18.8539 4.84541 19.369 4.07406C18.6797 4.38056 17.9379 4.58661 17.1599 4.67983C17.954 4.2034 18.5638 3.45006 18.8514 2.552C18.1081 2.99266 17.285 3.3128 16.4087 3.48572C15.7067 2.73799 14.7072 2.27039 13.6005 2.27039C11.4763 2.27039 9.75343 3.99311 9.75343 6.1167C9.75343 6.41872 9.78726 6.71226 9.85319 6.99388C6.65599 6.83301 3.82079 5.30235 1.92367 2.97466C1.59343 3.54305 1.40286 4.20352 1.40286 4.90825C1.40286 6.24271 2.08202 7.42112 3.11469 8.11025C2.48357 8.09088 1.89076 7.91762 1.37247 7.62924C1.3719 7.6454 1.3719 7.66111 1.3719 7.67831C1.3719 9.54138 2.69788 11.0969 4.45833 11.4494C4.13497 11.5374 3.79476 11.5847 3.44389 11.5847C3.19644 11.5847 2.95519 11.5604 2.72081 11.5153C3.21055 13.0438 4.63078 14.1561 6.31452 14.1873C4.99783 15.2192 3.3392 15.8339 1.53656 15.8339C1.2265 15.8339 0.920006 15.8162 0.618896 15.7806C2.32144 16.8719 4.34309 17.5087 6.51576 17.5087" fill="black"></path></svg>