<svg width="14" height="14" viewBox="0 0 14 14" fill="none" xmlns="http://www.w3.org/2000/svg"><path d="M13.6341 7C13.6341 8.28489 10.6622 11.2778 6.99691 11.2778C3.33124 11.2778 0.359741 8.65239 0.359741 7C0.359741 5.71161 3.33163 2.72222 6.99691 2.72222C10.6622 2.72222 13.6341 5.71122 13.6341 7Z" fill="#99AAB5"></path><path d="M13.1511 7C13.1511 8.12933 10.395 10.7594 6.99651 10.7594C3.59762 10.7594 0.842346 8.45133 0.842346 7C0.842346 5.86755 3.59762 3.241 6.99651 3.241C10.395 3.24061 13.1511 5.86755 13.1511 7Z" fill="#F5F8FA"></path><path d="M7.00001 10.2892C8.81659 10.2892 10.2892 8.81659 10.2892 7.00001C10.2892 5.18342 8.81659 3.71078 7.00001 3.71078C5.18342 3.71078 3.71078 5.18342 3.71078 7.00001C3.71078 8.81659 5.18342 10.2892 7.00001 10.2892Z" fill="#55ACEE"></path><path d="M7.00002 8.83089C8.01119 8.83089 8.83091 8.01117 8.83091 7C8.83091 5.98883 8.01119 5.16911 7.00002 5.16911C5.98885 5.16911 5.16913 5.98883 5.16913 7C5.16913 8.01117 5.98885 8.83089 7.00002 8.83089Z" fill="#292F33"></path><path d="M8.16666 6.61111C8.59622 6.61111 8.94444 6.26289 8.94444 5.83333C8.94444 5.40378 8.59622 5.05556 8.16666 5.05556C7.73711 5.05556 7.38889 5.40378 7.38889 5.83333C7.38889 6.26289 7.73711 6.61111 8.16666 6.61111Z" fill="#F5F8FA"></path></svg>