<svg width="20" height="20" viewBox="0 0 20 20" fill="none" xmlns="http://www.w3.org/2000/svg"><g clip-path="url(#vk-icon)"><path class="vk-icon" d="M16.5958 10.8566C16.2725 10.4483 16.365 10.2666 16.5958 9.90163C16.6 9.89746 19.2692 6.20913 19.5442 4.95829L19.5458 4.95746C19.6825 4.50163 19.5458 4.16663 18.885 4.16663H16.6983C16.1417 4.16663 15.885 4.45413 15.7475 4.77579C15.7475 4.77579 14.6342 7.44079 13.0592 9.16829C12.5508 9.66746 12.3158 9.82746 12.0383 9.82746C11.9017 9.82746 11.6892 9.66746 11.6892 9.21163V4.95746C11.6892 4.41079 11.5333 4.16663 11.0725 4.16663H7.63417C7.285 4.16663 7.0775 4.42163 7.0775 4.65913C7.0775 5.17746 7.865 5.29663 7.94667 6.75496V9.91913C7.94667 10.6125 7.82083 10.74 7.54167 10.74C6.79833 10.74 4.99417 8.06413 3.925 5.00163C3.70917 4.40746 3.49833 4.16746 2.9375 4.16746H0.75C0.125833 4.16746 0 4.45496 0 4.77663C0 5.34496 0.743333 8.17079 3.45667 11.9041C5.265 14.4525 7.81167 15.8333 10.1283 15.8333C11.5208 15.8333 11.6908 15.5266 11.6908 14.9991C11.6908 12.5641 11.565 12.3341 12.2625 12.3341C12.5858 12.3341 13.1425 12.4941 14.4425 13.7233C15.9283 15.1808 16.1725 15.8333 17.0042 15.8333H19.1908C19.8142 15.8333 20.13 15.5266 19.9483 14.9216C19.5325 13.6491 16.7225 11.0316 16.5958 10.8566Z" fill="black"></path></g><defs><clipPath id="vk-icon"><rect width="20" height="20" fill="white"></rect></clipPath></defs></svg>