<?xml version="1.0" standalone="no"?>
<!DOCTYPE svg PUBLIC "-//W3C//DTD SVG 20010904//EN"
 "http://www.w3.org/TR/2001/REC-SVG-20010904/DTD/svg10.dtd">
<svg version="1.0" xmlns="http://www.w3.org/2000/svg"
 width="700.000000pt" height="700.000000pt" viewBox="0 0 700.000000 700.000000"
 preserveAspectRatio="xMidYMid meet">
<metadata>
Created by potrace 1.11, written by Peter Selinger 2001-2013
</metadata>
<g transform="translate(0.000000,700.000000) scale(0.100000,-0.100000)"
fill="#000000" stroke="none">
<path d="M1087 5045 c-64 -13 -109 -43 -131 -89 -32 -67 -3 -158 91 -286 26
-36 66 -92 89 -125 22 -33 252 -362 510 -730 258 -369 476 -680 484 -692 8
-12 69 -98 135 -192 66 -94 192 -274 279 -399 88 -125 202 -288 254 -362 53
-74 120 -171 151 -215 30 -44 103 -148 161 -230 58 -83 118 -171 135 -195 102
-153 219 -204 340 -151 61 27 97 68 206 236 50 77 155 239 234 360 79 121 203
312 276 425 73 113 174 268 225 345 50 77 176 271 279 430 104 160 225 346
270 415 100 153 149 229 253 390 44 69 84 130 89 136 4 5 13 18 18 27 32 52
362 559 372 572 20 23 53 103 59 141 12 81 -22 138 -106 177 l-45 21 -2287 1
c-1573 0 -2304 -3 -2341 -10z"/>
</g>
</svg>
